<svg width="84" height="84" viewBox="0 0 84 84" fill="none" xmlns="http://www.w3.org/2000/svg">
<rect width="84" height="84" rx="42" fill="#F1FAF2"/>
<path d="M50.9893 35.8533C51.1358 36.0072 51.252 36.1901 51.3312 36.3913C51.4105 36.5926 51.4513 36.8083 51.4513 37.0262C51.4513 37.2441 51.4105 37.4598 51.3312 37.6611C51.252 37.8624 51.1358 38.0452 50.9893 38.1992L39.9643 49.8044C39.8181 49.9586 39.6444 50.0809 39.4532 50.1643C39.262 50.2477 39.057 50.2907 38.85 50.2907C38.6431 50.2907 38.4381 50.2477 38.2469 50.1643C38.0557 50.0809 37.882 49.9586 37.7357 49.8044L33.0107 44.8308C32.7152 44.5197 32.5492 44.0977 32.5492 43.6578C32.5492 43.2178 32.7152 42.7959 33.0107 42.4848C33.3063 42.1737 33.7071 41.999 34.125 41.999C34.543 41.999 34.9438 42.1737 35.2393 42.4848L38.85 46.2876L48.7607 35.8533C48.907 35.6991 49.0807 35.5768 49.2719 35.4934C49.4631 35.41 49.6681 35.367 49.875 35.367C50.082 35.367 50.287 35.41 50.4782 35.4934C50.6694 35.5768 50.8431 35.6991 50.9893 35.8533ZM62.475 41.9999C62.475 46.2626 61.2742 50.4296 59.0244 53.9739C56.7746 57.5182 53.5768 60.2807 49.8355 61.9119C46.0942 63.5432 41.9773 63.97 38.0056 63.1384C34.0338 62.3068 30.3855 60.2541 27.522 57.2399C24.6585 54.2257 22.7085 50.3854 21.9185 46.2046C21.1284 42.0238 21.5339 37.6903 23.0836 33.7521C24.6333 29.8138 27.2576 26.4478 30.6247 24.0795C33.9918 21.7113 37.9505 20.4473 42 20.4473C47.4286 20.4533 52.6331 22.726 56.4717 26.7665C60.3103 30.8071 62.4693 36.2856 62.475 41.9999ZM59.325 41.9999C59.325 38.393 58.3089 34.8671 56.4052 31.868C54.5015 28.869 51.7958 26.5316 48.63 25.1513C45.4643 23.7709 41.9808 23.4098 38.6201 24.1135C35.2594 24.8171 32.1724 26.554 29.7494 29.1045C27.3265 31.655 25.6764 34.9045 25.0079 38.4421C24.3394 41.9797 24.6825 45.6465 25.9938 48.9788C27.3051 52.3112 29.5257 55.1594 32.3748 57.1633C35.2239 59.1672 38.5735 60.2367 42 60.2367C46.5933 60.2313 50.997 58.3081 54.2449 54.8892C57.4928 51.4703 59.3198 46.8349 59.325 41.9999Z" fill="#76CA81"/>
</svg>
