<svg width="84" height="84" viewBox="0 0 84 84" fill="none" xmlns="http://www.w3.org/2000/svg">
<rect width="84" height="84" rx="42" fill="#FFFAEC"/>
<g clip-path="url(#clip0_253_37)">
<path d="M41.979 19.8947C30.387 19.8947 21 29.7978 21 41.9999C21 54.202 30.387 64.1052 41.979 64.1052C53.592 64.1052 63 54.202 63 41.9999C63 29.7978 53.592 19.8947 41.979 19.8947ZM42 59.6841C32.718 59.6841 25.2 51.7704 25.2 41.9999C25.2 32.2294 32.718 24.3157 42 24.3157C51.282 24.3157 58.8 32.2294 58.8 41.9999C58.8 51.7704 51.282 59.6841 42 59.6841Z" fill="#FECC43"/>
<path d="M43.05 30.9474H39.9V44.2105L50.925 51.1737L52.5 48.4548L43.05 42.5527V30.9474Z" fill="#FECC43"/>
</g>
<defs>
<clipPath id="clip0_253_37">
<rect width="50.4" height="53.0526" fill="white" transform="translate(16.8 15.4736)"/>
</clipPath>
</defs>
</svg>
