<svg width="120" height="114" viewBox="0 0 120 114" fill="none" xmlns="http://www.w3.org/2000/svg">
<rect width="120" height="114" rx="50" fill="#FFFAEC"/>
<path d="M91.3397 58.4062L82.3397 35.9062C82.1416 35.4106 81.7736 35.0016 81.3017 34.7523C80.8298 34.5029 80.2846 34.4295 79.7635 34.545L62.25 38.4375V32.25C62.25 31.6533 62.013 31.081 61.591 30.659C61.1691 30.2371 60.5968 30 60 30C59.4033 30 58.831 30.2371 58.4091 30.659C57.9871 31.081 57.75 31.6533 57.75 32.25V39.4444L39.2607 43.5534C38.9042 43.6322 38.5722 43.7965 38.2934 44.0322C38.0146 44.2679 37.7973 44.5678 37.6604 44.9062V44.9231L28.6604 67.4062C28.5527 67.6744 28.4982 67.961 28.5 68.25C28.5 74.8059 35.4019 77.25 39.75 77.25C44.0982 77.25 51 74.8059 51 68.25C51.0018 67.961 50.9474 67.6744 50.8397 67.4062L42.8213 47.3728L57.75 44.0625V79.5H53.25C52.6533 79.5 52.081 79.7371 51.6591 80.159C51.2371 80.581 51 81.1533 51 81.75C51 82.3467 51.2371 82.919 51.6591 83.341C52.081 83.7629 52.6533 84 53.25 84H66.75C67.3468 84 67.9191 83.7629 68.341 83.341C68.763 82.919 69 82.3467 69 81.75C69 81.1533 68.763 80.581 68.341 80.159C67.9191 79.7371 67.3468 79.5 66.75 79.5H62.25V43.0556L76.5938 39.8719L69.1604 58.4062C69.0527 58.6744 68.9982 58.961 69 59.25C69 65.8059 75.9019 68.25 80.25 68.25C84.5982 68.25 91.5 65.8059 91.5 59.25C91.5018 58.961 91.4474 58.6744 91.3397 58.4062ZM39.75 72.75C37.6322 72.75 33.3488 71.7347 33.0197 68.6325L39.75 51.8081L46.4804 68.6325C46.1513 71.7347 41.8679 72.75 39.75 72.75ZM80.25 63.75C78.1322 63.75 73.8488 62.7347 73.5197 59.6325L80.25 42.8081L86.9804 59.6325C86.6513 62.7347 82.3679 63.75 80.25 63.75Z" fill="#FECC43"/>
</svg>
