<svg width="120" height="114" viewBox="0 0 120 114" fill="none" xmlns="http://www.w3.org/2000/svg">
<rect width="120" height="114" rx="50" fill="#F1FAF2"/>
<path d="M64.3256 26.0203C64.0483 25.7897 63.7195 25.6292 63.3671 25.5523C63.0147 25.4753 62.6489 25.4842 62.3007 25.5783C61.9525 25.6723 61.6319 25.8487 61.3661 26.0925C61.1003 26.3364 60.8971 26.6405 60.7734 26.9794L54.5859 43.9697L47.7909 37.3857C47.5627 37.1643 47.2902 36.9939 46.9914 36.8855C46.6925 36.7771 46.3741 36.7333 46.057 36.757C45.74 36.7807 45.4316 36.8712 45.1521 37.0227C44.8727 37.1742 44.6285 37.3832 44.4356 37.636C38.3438 45.6178 35.25 53.6475 35.25 61.5C35.25 68.0641 37.8576 74.3594 42.4991 79.0009C47.1406 83.6425 53.4359 86.25 60 86.25C66.5641 86.25 72.8594 83.6425 77.5009 79.0009C82.1424 74.3594 84.75 68.0641 84.75 61.5C84.75 44.7797 70.4653 31.125 64.3256 26.0203ZM60 81.75C54.6312 81.7441 49.484 79.6087 45.6877 75.8124C41.8913 72.016 39.756 66.8688 39.75 61.5C39.75 55.3125 42.0253 48.9028 46.5169 42.42L53.9334 49.6144C54.2028 49.876 54.5333 50.066 54.8949 50.1671C55.2565 50.2683 55.6376 50.2773 56.0036 50.1935C56.3696 50.1096 56.7088 49.9355 56.9902 49.6869C57.2717 49.4384 57.4864 49.1234 57.615 48.7707L63.8784 31.5947C70.1841 37.335 80.25 48.5372 80.25 61.5C80.244 66.8688 78.1087 72.016 74.3123 75.8124C70.516 79.6087 65.3688 81.7441 60 81.75Z" fill="#76CA81"/>
</svg>
