<svg width="120" height="114" viewBox="0 0 120 114" fill="none" xmlns="http://www.w3.org/2000/svg">
<rect width="120" height="114" rx="50" fill="#FFECEC"/>
<path d="M88.25 78.5C88.25 79.0967 88.0129 79.669 87.591 80.091C87.169 80.5129 86.5967 80.75 86 80.75H32C31.4033 80.75 30.831 80.5129 30.409 80.091C29.9871 79.669 29.75 79.0967 29.75 78.5V33.5C29.75 32.9033 29.9871 32.331 30.409 31.909C30.831 31.4871 31.4033 31.25 32 31.25C32.5967 31.25 33.169 31.4871 33.591 31.909C34.0129 32.331 34.25 32.9033 34.25 33.5V37.0691L50 52.8191L57.4081 45.4081C57.6171 45.1989 57.8652 45.033 58.1384 44.9197C58.4115 44.8065 58.7043 44.7482 59 44.7482C59.2957 44.7482 59.5885 44.8065 59.8616 44.9197C60.1348 45.033 60.3829 45.1989 60.5919 45.4081L77 61.8191V56C77 55.4033 77.2371 54.831 77.659 54.409C78.081 53.9871 78.6533 53.75 79.25 53.75C79.8467 53.75 80.419 53.9871 80.841 54.409C81.2629 54.831 81.5 55.4033 81.5 56V67.25C81.5043 67.3249 81.5043 67.4001 81.5 67.475C81.5 67.5059 81.5 67.5341 81.4859 67.565C81.4719 67.5959 81.4859 67.6494 81.4663 67.6944C81.4602 67.7296 81.4517 67.7644 81.4409 67.7984C81.4409 67.835 81.4241 67.8716 81.4128 67.9081C81.4016 67.9447 81.3903 67.9728 81.3791 68.0066L81.3397 68.1162L81.2975 68.2034C81.2806 68.24 81.2637 68.2794 81.2441 68.3159C81.2244 68.3525 81.2131 68.3666 81.1991 68.3947L81.1316 68.5044L81.0725 68.5831L80.9994 68.6816C80.9684 68.7209 80.9319 68.7575 80.8981 68.7941L80.8531 68.8447L80.8053 68.8869C80.768 68.9238 80.7285 68.9586 80.6872 68.9909C80.6584 69.0159 80.6284 69.0394 80.5972 69.0612L80.5128 69.1231L80.4059 69.1878C80.3788 69.2054 80.3506 69.2214 80.3216 69.2356L80.2175 69.2891L80.1219 69.3312L80.0206 69.3678C79.9859 69.3825 79.9502 69.3947 79.9137 69.4044L79.8125 69.4325C79.7731 69.4325 79.7394 69.4522 79.7 69.4578L79.5819 69.4775L79.4834 69.4916C79.4094 69.4957 79.3353 69.4957 79.2612 69.4916H68C67.4033 69.4916 66.831 69.2545 66.409 68.8326C65.9871 68.4106 65.75 67.8383 65.75 67.2416C65.75 66.6448 65.9871 66.0725 66.409 65.6506C66.831 65.2286 67.4033 64.9916 68 64.9916H73.8191L59 50.1809L51.5919 57.5919C51.3829 57.8011 51.1348 57.967 50.8616 58.0803C50.5885 58.1935 50.2957 58.2518 50 58.2518C49.7043 58.2518 49.4115 58.1935 49.1384 58.0803C48.8652 57.967 48.6171 57.8011 48.4081 57.5919L34.25 43.4309V76.25H86C86.5967 76.25 87.169 76.4871 87.591 76.909C88.0129 77.331 88.25 77.9033 88.25 78.5Z" fill="#FE4343"/>
</svg>
