<svg width="84" height="84" viewBox="0 0 84 84" fill="none" xmlns="http://www.w3.org/2000/svg">
<rect width="84" height="84" rx="35.7552" fill="#F0EEFD"/>
<path d="M60.8159 31.8546L55.0057 26.0444C54.8708 25.9094 54.7106 25.8022 54.5342 25.7291C54.3579 25.656 54.1689 25.6184 53.978 25.6184C53.7871 25.6184 53.5981 25.656 53.4217 25.7291C53.2454 25.8022 53.0852 25.9094 52.9503 26.0444L35.5196 43.4751C35.3848 43.6101 35.2779 43.7703 35.205 43.9467C35.1321 44.123 35.0946 44.312 35.0948 44.5028V50.313C35.0948 50.6982 35.2478 51.0677 35.5202 51.3401C35.7926 51.6125 36.1621 51.7655 36.5473 51.7655H42.3575C42.5483 51.7657 42.7373 51.7282 42.9136 51.6553C43.09 51.5824 43.2502 51.4755 43.3852 51.3407L60.8159 33.91C60.9509 33.7751 61.0581 33.6149 61.1312 33.4386C61.2043 33.2622 61.2419 33.0732 61.2419 32.8823C61.2419 32.6914 61.2043 32.5024 61.1312 32.3261C61.0581 32.1497 60.9509 31.9895 60.8159 31.8546ZM41.7565 48.8604H37.9999V45.1038L49.6203 33.4833L53.377 37.24L41.7565 48.8604ZM55.4305 35.1864L51.6739 31.4298L53.978 29.1257L57.7346 32.8823L55.4305 35.1864ZM59.7882 44.5028V59.0283C59.7882 59.7988 59.4821 60.5377 58.9373 61.0825C58.3925 61.6273 57.6536 61.9334 56.8831 61.9334H27.832C27.0615 61.9334 26.3226 61.6273 25.7778 61.0825C25.233 60.5377 24.9269 59.7988 24.9269 59.0283V29.9772C24.9269 29.2067 25.233 28.4678 25.7778 27.923C26.3226 27.3782 27.0615 27.0721 27.832 27.0721H42.3575C42.7428 27.0721 43.1122 27.2251 43.3846 27.4975C43.6571 27.77 43.8101 28.1394 43.8101 28.5247C43.8101 28.9099 43.6571 29.2794 43.3846 29.5518C43.1122 29.8242 42.7428 29.9772 42.3575 29.9772H27.832V59.0283H56.8831V44.5028C56.8831 44.1175 57.0361 43.7481 57.3085 43.4757C57.5809 43.2032 57.9504 43.0502 58.3356 43.0502C58.7209 43.0502 59.0903 43.2032 59.3628 43.4757C59.6352 43.7481 59.7882 44.1175 59.7882 44.5028Z" fill="#6554EE"/>
</svg>
